<?xml version="1.0" encoding="UTF-8"?> <svg xmlns="http://www.w3.org/2000/svg" width="18" height="21" viewBox="0 0 18 21" fill="none"><path d="M14.8386 19.8453C13.7397 20.9118 12.5273 20.7455 11.3717 20.2427C10.1431 19.7298 9.01988 19.6973 7.72233 20.2427C6.10647 20.9401 5.24886 20.7374 4.2757 19.8453C-1.21864 14.1888 -0.407665 5.57228 5.83682 5.24789C7.35131 5.32898 8.41165 6.08521 9.30372 6.14806C10.6297 5.87842 11.8988 5.10597 13.318 5.20734C15.0231 5.3452 16.2984 6.01831 17.1499 7.22868C13.6424 9.3372 14.4737 13.9597 17.6953 15.2573C17.0505 16.9502 16.2233 18.6228 14.8366 19.8595L14.8386 19.8453ZM9.18208 5.18706C9.01785 2.67306 11.0554 0.605086 13.3991 0.402344C13.7215 3.30156 10.7635 5.4709 9.18208 5.18706Z" fill="white"></path></svg> 