<?xml version="1.0" standalone="no"?><!DOCTYPE svg PUBLIC "-//W3C//DTD SVG 1.1//EN" "http://www.w3.org/Graphics/SVG/1.1/DTD/svg11.dtd"><svg t="1745115291886" class="icon" viewBox="0 0 1024 1024" version="1.1" xmlns="http://www.w3.org/2000/svg" p-id="1315" xmlns:xlink="http://www.w3.org/1999/xlink" width="32" height="32"><path d="M448.085333 167.082667a42.666667 42.666667 0 0 1 14.592 32.128v257.578666a42.666667 42.666667 0 0 1-42.666666 42.666667H144a42.666667 42.666667 0 0 1-42.666667-42.666667V235.989333a42.666667 42.666667 0 0 1 37.034667-42.282666l276.010667-36.778667a42.666667 42.666667 0 0 1 33.706666 10.154667zM908.202667 111.957333a42.666667 42.666667 0 0 1 14.464 32.042667v312.789333a42.666667 42.666667 0 0 1-42.666667 42.666667h-349.610667a42.666667 42.666667 0 0 1-42.666666-42.666667V188.672a42.666667 42.666667 0 0 1 37.290666-42.325333l349.568-44.672a42.666667 42.666667 0 0 1 33.621334 10.282666zM500.565333 555.093333a42.666667 42.666667 0 0 1 30.848-12.16l349.568 8.192a42.666667 42.666667 0 0 1 41.685334 42.666667v286.208a42.666667 42.666667 0 0 1-49.578667 42.112L523.52 864.853333a42.666667 42.666667 0 0 1-35.797333-42.112v-237.141333a42.666667 42.666667 0 0 1 12.885333-30.506667zM114.176 536.661333a42.666667 42.666667 0 0 1 30.848-12.117333l276.010667 6.656a42.666667 42.666667 0 0 1 41.642666 42.666667v232.533333a42.666667 42.666667 0 0 1-49.749333 42.069333l-276.053333-46.506666a42.666667 42.666667 0 0 1-35.541334-42.069334v-192.682666a42.666667 42.666667 0 0 1 12.842667-30.549334z" fill="#ffffff" fill-opacity=".85" p-id="1316"></path></svg>